<?xml version="1.0" standalone="no"?>
<!DOCTYPE svg PUBLIC "-//W3C//DTD SVG 20010904//EN"
 "http://www.w3.org/TR/2001/REC-SVG-20010904/DTD/svg10.dtd">
<svg version="1.0" xmlns="http://www.w3.org/2000/svg"
 width="700.000000pt" height="700.000000pt" viewBox="0 0 700.000000 700.000000"
 preserveAspectRatio="xMidYMid meet">
<metadata>
Created by potrace 1.14, written by Peter Selinger 2001-2017
</metadata>
<g transform="translate(0.000000,700.000000) scale(0.100000,-0.100000)"
fill="#000000" stroke="none">
<path d="M430 6343 c-30 -13 -59 -59 -75 -118 -5 -16 -10 -37 -13 -45 -9 -27
-10 -413 -2 -475 5 -33 11 -87 15 -120 9 -84 25 -188 54 -355 48 -275 137
-621 225 -873 95 -269 183 -393 349 -487 31 -17 57 -34 57 -37 0 -2 -32 -58
-70 -123 -66 -113 -220 -400 -220 -412 0 -3 83 -6 185 -6 102 1 185 -3 186 -6
0 -4 -16 -28 -38 -53 -117 -140 -184 -233 -302 -418 -70 -109 -217 -432 -226
-495 -2 -14 -11 -45 -20 -70 -9 -25 -19 -76 -22 -113 l-5 -68 38 17 c187 82
384 136 456 125 3 -1 -1 -22 -9 -49 -25 -79 -41 -145 -48 -192 -4 -24 -8 -47
-11 -51 -10 -17 -21 -195 -12 -204 2 -2 20 5 42 16 121 59 339 130 471 154 79
14 290 15 346 1 63 -15 169 -51 231 -78 57 -26 68 -35 74 -61 3 -16 28 -78 54
-137 129 -293 327 -538 578 -717 17 -13 34 -23 38 -23 4 0 15 -6 23 -14 27
-24 191 -102 281 -134 151 -52 246 -67 440 -67 193 0 275 13 434 67 311 106
589 335 791 653 47 74 145 269 145 289 0 8 4 17 9 20 4 3 16 29 25 58 14 44
24 59 65 86 51 35 144 76 201 89 66 14 281 8 370 -10 137 -29 326 -93 470
-161 l55 -26 5 43 c3 23 0 92 -7 152 -11 101 -21 146 -58 261 l-13 42 41 -5
c108 -13 320 -78 417 -128 39 -20 41 -8 18 105 -11 52 -21 109 -22 125 -8 92
-186 455 -314 640 -89 129 -106 150 -201 263 -34 39 -58 72 -54 73 4 0 90 0
191 1 103 0 182 4 182 9 0 17 -137 273 -232 432 -32 55 -58 100 -58 102 0 2
27 18 60 36 69 36 163 123 207 189 33 50 94 160 89 160 -2 0 9 31 24 69 25 61
85 237 96 281 2 8 19 74 39 145 31 115 80 319 91 383 2 12 6 33 8 47 3 14 7
33 10 43 3 9 7 33 10 52 3 19 14 91 25 160 38 238 46 336 46 540 0 209 -7 268
-41 338 -28 58 -51 72 -112 72 -96 0 -381 -105 -677 -251 -554 -272 -1047
-590 -1316 -848 l-101 -97 -62 13 c-59 13 -81 16 -163 28 -191 28 -379 39
-688 39 -211 0 -484 -9 -531 -18 -10 -2 -48 -7 -84 -10 -63 -6 -83 -9 -140
-21 -14 -3 -41 -7 -60 -10 -19 -3 -52 -9 -72 -14 -36 -8 -38 -7 -115 68 -120
117 -246 220 -393 321 -36 24 -85 58 -110 75 -275 191 -833 490 -1155 620
-198 80 -366 119 -415 98z"/>
</g>
</svg>
